<svg width="2786" height="938" viewBox="0 0 2786 938" fill="none" xmlns="http://www.w3.org/2000/svg">
<circle cx="469" cy="469" r="469" fill="url(#paint0_radial_1831_101)"/>
<circle cx="469" cy="469" r="469" fill="url(#paint1_radial_1831_101)"/>
<path d="M554.249 711.972C524.656 711.972 499.325 706.112 478.255 694.393C457.185 682.556 441.027 666.103 429.782 645.033C418.537 623.844 412.914 599.282 412.914 571.347C412.914 543.411 418.537 518.908 429.782 497.838C441.027 476.65 457.185 460.196 478.255 448.477C499.325 436.64 524.656 430.722 554.249 430.722C583.842 430.722 609.174 436.64 630.244 448.477C651.314 460.196 667.471 476.65 678.717 497.838C689.962 518.908 695.585 543.411 695.585 571.347C695.585 599.282 689.962 623.844 678.717 645.033C667.471 666.103 651.314 682.556 630.244 694.393C609.174 706.112 583.842 711.972 554.249 711.972ZM554.96 639.528C563.245 639.528 570.407 636.747 576.444 631.183C582.481 625.62 587.156 617.689 590.471 607.391C593.785 597.092 595.442 584.841 595.442 570.636C595.442 556.313 593.785 544.062 590.471 533.882C587.156 523.584 582.481 515.653 576.444 510.089C570.407 504.526 563.245 501.744 554.96 501.744C546.2 501.744 538.683 504.526 532.41 510.089C526.136 515.653 521.342 523.584 518.028 533.882C514.713 544.062 513.056 556.313 513.056 570.636C513.056 584.841 514.713 597.092 518.028 607.391C521.342 617.689 526.136 625.62 532.41 631.183C538.683 636.747 546.2 639.528 554.96 639.528Z" fill="#7F8085"/>
<path d="M700.357 707V434.273H793.397V486.119H796.238C801.92 469.074 811.626 455.58 825.357 445.636C839.088 435.693 855.424 430.722 874.363 430.722C893.539 430.722 910.052 435.812 923.901 445.991C937.751 456.053 946.096 469.429 948.937 486.119H951.778C956.394 469.429 966.219 456.053 981.252 445.991C996.285 435.812 1013.92 430.722 1034.16 430.722C1060.32 430.722 1081.51 439.126 1097.73 455.935C1114.06 472.743 1122.23 495.116 1122.23 523.051V707H1024.22V547.909C1024.22 535.954 1021.2 526.602 1015.17 519.855C1009.13 512.99 1001.02 509.557 990.84 509.557C980.779 509.557 972.789 512.99 966.87 519.855C961.07 526.602 958.17 535.954 958.17 547.909V707H864.42V547.909C864.42 535.954 861.401 526.602 855.364 519.855C849.327 512.99 841.219 509.557 831.039 509.557C824.292 509.557 818.492 511.096 813.638 514.173C808.785 517.251 804.997 521.69 802.275 527.49C799.671 533.172 798.369 539.978 798.369 547.909V707H700.357Z" fill="#7F8085"/>
<path d="M1233.58 553.591V707H1135.57V434.273H1228.61V486.119H1231.45C1237.37 468.837 1247.79 455.284 1262.7 445.459C1277.74 435.634 1295.25 430.722 1315.26 430.722C1334.55 430.722 1351.3 435.161 1365.51 444.038C1379.83 452.798 1390.9 464.872 1398.71 480.26C1406.64 495.648 1410.55 513.226 1410.43 532.994V707H1312.42V553.591C1312.54 540.097 1309.1 529.502 1302.12 521.808C1295.25 514.114 1285.67 510.267 1273.36 510.267C1265.31 510.267 1258.26 512.043 1252.23 515.594C1246.31 519.027 1241.75 523.998 1238.56 530.509C1235.36 536.901 1233.7 544.595 1233.58 553.591Z" fill="#7F8085"/>
<path d="M1423.81 707V434.273H1521.83V707H1423.81ZM1472.82 405.864C1459.56 405.864 1448.2 401.484 1438.73 392.724C1429.26 383.965 1424.52 373.43 1424.52 361.119C1424.52 348.809 1429.26 338.274 1438.73 329.514C1448.2 320.755 1459.56 316.375 1472.82 316.375C1486.2 316.375 1497.56 320.755 1506.91 329.514C1516.38 338.274 1521.12 348.809 1521.12 361.119C1521.12 373.43 1516.38 383.965 1506.91 392.724C1497.56 401.484 1486.2 405.864 1472.82 405.864Z" fill="#7F8085"/>
<path d="M1668.16 711.972C1638.56 711.972 1613.23 706.112 1592.16 694.393C1571.09 682.556 1554.93 666.103 1543.69 645.033C1532.44 623.844 1526.82 599.282 1526.82 571.347C1526.82 543.411 1532.44 518.908 1543.69 497.838C1554.93 476.65 1571.09 460.196 1592.16 448.477C1613.23 436.64 1638.56 430.722 1668.16 430.722C1694.91 430.722 1718.05 435.575 1737.58 445.281C1757.23 454.869 1772.44 468.482 1783.21 486.119C1793.98 503.638 1799.43 524.235 1799.55 547.909H1708.64C1707.34 533.586 1703.19 522.696 1696.21 515.239C1689.34 507.663 1680.47 503.875 1669.58 503.875C1661.05 503.875 1653.6 506.361 1647.2 511.332C1640.81 516.186 1635.84 523.584 1632.29 533.527C1628.74 543.352 1626.96 555.722 1626.96 570.636C1626.96 585.551 1628.74 597.98 1632.29 607.923C1635.84 617.748 1640.81 625.146 1647.2 630.118C1653.6 634.971 1661.05 637.398 1669.58 637.398C1676.8 637.398 1683.19 635.741 1688.75 632.426C1694.32 628.993 1698.81 624.022 1702.25 617.511C1705.8 610.883 1707.93 602.833 1708.64 593.364H1799.55C1799.19 617.393 1793.69 638.345 1783.03 656.219C1772.38 673.974 1757.29 687.705 1737.76 697.412C1718.34 707.118 1695.14 711.972 1668.16 711.972Z" fill="#7F8085"/>
<path d="M1903 553.591V707H1804.99V343.364H1899.45V486.119H1902.29C1908.44 468.719 1918.68 455.165 1933 445.459C1947.33 435.634 1964.55 430.722 1984.67 430.722C2003.97 430.722 2020.72 435.101 2034.92 443.861C2049.25 452.62 2060.31 464.694 2068.13 480.082C2076.06 495.471 2079.96 513.108 2079.84 532.994V707H1981.83V553.591C1981.95 540.097 1978.58 529.502 1971.71 521.808C1964.96 514.114 1955.32 510.267 1942.77 510.267C1934.84 510.267 1927.86 512.043 1921.82 515.594C1915.9 519.027 1911.28 523.998 1907.97 530.509C1904.77 536.901 1903.12 544.595 1903 553.591Z" fill="#7F8085"/>
<path d="M2223.91 711.972C2194.79 711.972 2169.7 706.408 2148.63 695.281C2127.67 684.036 2111.52 667.938 2100.15 646.986C2088.91 625.916 2083.29 600.703 2083.29 571.347C2083.29 543.174 2088.97 518.553 2100.33 497.483C2111.69 476.413 2127.73 460.018 2148.45 448.3C2169.16 436.581 2193.61 430.722 2221.78 430.722C2242.38 430.722 2261.02 433.918 2277.71 440.31C2294.4 446.702 2308.66 455.994 2320.5 468.186C2332.34 480.26 2341.45 494.938 2347.84 512.22C2354.24 529.502 2357.43 548.974 2357.43 570.636V593.364H2113.82V539.386H2267.23C2267.12 531.574 2265.1 524.708 2261.2 518.79C2257.41 512.753 2252.26 508.077 2245.75 504.763C2239.36 501.33 2232.08 499.614 2223.91 499.614C2215.98 499.614 2208.7 501.33 2202.07 504.763C2195.44 508.077 2190.12 512.694 2186.09 518.612C2182.18 524.531 2180.11 531.455 2179.88 539.386V597.625C2179.88 606.384 2181.71 614.197 2185.38 621.062C2189.05 627.928 2194.32 633.314 2201.18 637.22C2208.05 641.126 2216.33 643.08 2226.04 643.08C2232.79 643.08 2238.94 642.133 2244.51 640.239C2250.19 638.345 2255.04 635.622 2259.07 632.071C2263.09 628.401 2266.05 624.022 2267.94 618.932H2357.43C2354.36 637.871 2347.08 654.325 2335.59 668.293C2324.11 682.142 2308.9 692.914 2289.96 700.608C2271.14 708.184 2249.12 711.972 2223.91 711.972Z" fill="#7F8085"/>
<path d="M2362.43 707V434.273H2455.47V486.119H2458.31C2463.99 469.074 2473.7 455.58 2487.43 445.636C2501.16 435.693 2517.49 430.722 2536.43 430.722C2555.61 430.722 2572.12 435.812 2585.97 445.991C2599.82 456.053 2608.17 469.429 2611.01 486.119H2613.85C2618.46 469.429 2628.29 456.053 2643.32 445.991C2658.36 435.812 2675.99 430.722 2696.23 430.722C2722.39 430.722 2743.58 439.126 2759.8 455.935C2776.14 472.743 2784.3 495.116 2784.3 523.051V707H2686.29V547.909C2686.29 535.954 2683.27 526.602 2677.24 519.855C2671.2 512.99 2663.09 509.557 2652.91 509.557C2642.85 509.557 2634.86 512.99 2628.94 519.855C2623.14 526.602 2620.24 535.954 2620.24 547.909V707H2526.49V547.909C2526.49 535.954 2523.47 526.602 2517.43 519.855C2511.4 512.99 2503.29 509.557 2493.11 509.557C2486.36 509.557 2480.56 511.096 2475.71 514.173C2470.86 517.251 2467.07 521.69 2464.35 527.49C2461.74 533.172 2460.44 539.978 2460.44 547.909V707H2362.43Z" fill="#7F8085"/>
<path d="M531.145 759.818V820.498H538.381V850.061H530.479V828H479.521V759.818H487.466V820.543H523.199V759.818H531.145Z" fill="#7F8085"/>
<path d="M554.389 816.769L590.388 759.818H599.843V828H591.942V771.049L556.075 828H546.487V759.818H554.389V816.769Z" fill="#7F8085"/>
<path d="M640.765 851.26V737.091H648.71V851.26H640.765ZM640.765 829.42C636.059 829.42 631.739 828.562 627.803 826.846C623.867 825.129 620.449 822.703 617.549 819.566C614.679 816.4 612.444 812.671 610.846 808.38C609.248 804.089 608.449 799.384 608.449 794.264C608.449 789.085 609.248 784.336 610.846 780.015C612.444 775.695 614.679 771.966 617.549 768.829C620.449 765.692 623.867 763.266 627.803 761.549C631.739 759.803 636.059 758.93 640.765 758.93H643.117V829.42H640.765ZM640.765 822.185H642.052V766.166H640.765C636.947 766.166 633.529 766.92 630.511 768.43C627.492 769.909 624.933 771.951 622.831 774.555C620.73 777.159 619.132 780.148 618.037 783.522C616.943 786.896 616.395 790.476 616.395 794.264C616.395 799.295 617.357 803.926 619.28 808.158C621.233 812.39 624.03 815.793 627.67 818.367C631.31 820.942 635.675 822.215 640.765 822.185ZM648.71 829.42H646.313V758.93H648.71C653.386 758.93 657.692 759.803 661.628 761.549C665.593 763.266 669.011 765.692 671.882 768.829C674.782 771.966 677.031 775.695 678.629 780.015C680.227 784.336 681.026 789.085 681.026 794.264C681.026 799.384 680.227 804.089 678.629 808.38C677.031 812.671 674.782 816.4 671.882 819.566C669.011 822.703 665.593 825.129 661.628 826.846C657.692 828.562 653.386 829.42 648.71 829.42ZM648.71 822.185C652.528 822.185 655.931 821.46 658.92 820.01C661.938 818.53 664.498 816.488 666.599 813.884C668.73 811.28 670.343 808.306 671.438 804.962C672.533 801.588 673.08 798.022 673.08 794.264C673.08 789.233 672.104 784.587 670.15 780.326C668.227 776.065 665.445 772.647 661.805 770.072C658.165 767.468 653.8 766.166 648.71 766.166H647.379V822.185H648.71Z" fill="#7F8085"/>
<path d="M689.632 853.568V759.818H697.311V772.824H698.243C699.19 770.782 700.492 768.696 702.15 766.565C703.807 764.405 705.997 762.585 708.719 761.105C711.471 759.626 714.934 758.886 719.106 758.886C724.729 758.886 729.641 760.366 733.844 763.325C738.075 766.255 741.36 770.368 743.698 775.665C746.065 780.933 747.249 787.073 747.249 794.087C747.249 801.13 746.065 807.3 743.698 812.597C741.36 817.894 738.075 822.022 733.844 824.981C729.641 827.941 724.759 829.42 719.195 829.42C715.082 829.42 711.634 828.681 708.852 827.201C706.1 825.721 703.866 823.901 702.15 821.741C700.463 819.551 699.161 817.42 698.243 815.349H697.533V853.568H689.632ZM697.444 793.953C697.444 799.458 698.258 804.34 699.886 808.602C701.543 812.834 703.91 816.163 706.988 818.589C710.095 820.986 713.854 822.185 718.263 822.185C722.791 822.185 726.608 820.942 729.715 818.456C732.852 815.941 735.234 812.552 736.862 808.291C738.519 804.03 739.348 799.251 739.348 793.953C739.348 788.715 738.534 783.995 736.906 779.793C735.308 775.591 732.941 772.262 729.804 769.806C726.667 767.32 722.82 766.077 718.263 766.077C713.824 766.077 710.051 767.275 706.944 769.672C703.836 772.04 701.469 775.325 699.841 779.527C698.243 783.699 697.444 788.508 697.444 793.953Z" fill="#7F8085"/>
<path d="M782.333 829.42C776.444 829.42 771.236 827.926 766.708 824.937C762.21 821.948 758.689 817.82 756.144 812.552C753.599 807.255 752.326 801.144 752.326 794.22C752.326 787.236 753.599 781.095 756.144 775.798C758.689 770.472 762.21 766.329 766.708 763.369C771.236 760.38 776.444 758.886 782.333 758.886C788.222 758.886 793.416 760.38 797.914 763.369C802.412 766.358 805.934 770.501 808.479 775.798C811.053 781.095 812.341 787.236 812.341 794.22C812.341 801.144 811.068 807.255 808.523 812.552C805.978 817.82 802.442 821.948 797.914 824.937C793.416 827.926 788.222 829.42 782.333 829.42ZM782.333 822.185C787.068 822.185 791.078 820.912 794.363 818.367C797.648 815.822 800.134 812.434 801.82 808.202C803.537 803.971 804.395 799.31 804.395 794.22C804.395 789.13 803.537 784.454 801.82 780.193C800.134 775.931 797.648 772.513 794.363 769.939C791.078 767.364 787.068 766.077 782.333 766.077C777.628 766.077 773.618 767.364 770.304 769.939C767.019 772.513 764.519 775.931 762.802 780.193C761.115 784.454 760.272 789.13 760.272 794.22C760.272 799.31 761.115 803.971 762.802 808.202C764.519 812.434 767.019 815.822 770.304 818.367C773.589 820.912 777.599 822.185 782.333 822.185Z" fill="#7F8085"/>
<path d="M820.936 828V759.818H847.791C855.041 759.818 860.753 761.387 864.925 764.523C869.128 767.66 871.229 771.892 871.229 777.219C871.229 781.273 870.06 784.513 867.722 786.94C865.384 789.367 862.247 791.083 858.311 792.089C860.945 792.533 863.387 793.495 865.636 794.974C867.914 796.454 869.764 798.407 871.184 800.834C872.605 803.26 873.315 806.16 873.315 809.534C873.315 813.085 872.427 816.252 870.652 819.033C868.876 821.815 866.375 824.005 863.15 825.603C859.924 827.201 856.107 828 851.697 828H820.936ZM828.482 820.676H851.697C855.87 820.676 859.17 819.61 861.596 817.48C864.023 815.319 865.236 812.449 865.236 808.868C865.236 805.051 864.082 802.003 861.774 799.724C859.495 797.416 856.432 796.262 852.585 796.262H828.482V820.676ZM828.482 789.248H848.279C851.357 789.248 854.02 788.775 856.269 787.828C858.518 786.881 860.25 785.549 861.463 783.833C862.706 782.087 863.313 780.045 863.283 777.707C863.283 774.363 861.922 771.774 859.199 769.939C856.477 768.074 852.674 767.142 847.791 767.142H828.482V789.248Z" fill="#7F8085"/>
<path d="M900.931 829.554C896.817 829.554 893.059 828.755 889.656 827.157C886.253 825.529 883.545 823.191 881.533 820.143C879.52 817.065 878.514 813.337 878.514 808.957C878.514 805.583 879.15 802.742 880.423 800.434C881.695 798.126 883.501 796.232 885.838 794.752C888.176 793.273 890.943 792.104 894.139 791.246C897.335 790.387 900.857 789.722 904.704 789.248C908.521 788.775 911.747 788.36 914.381 788.005C917.044 787.65 919.071 787.088 920.462 786.318C921.853 785.549 922.548 784.306 922.548 782.59V780.992C922.548 776.346 921.157 772.691 918.376 770.028C915.624 767.335 911.658 765.988 906.479 765.988C901.567 765.988 897.557 767.068 894.45 769.229C891.372 771.389 889.212 773.934 887.969 776.864L880.467 774.156C882.006 770.427 884.137 767.453 886.859 765.234C889.582 762.985 892.63 761.372 896.004 760.395C899.377 759.389 902.795 758.886 906.257 758.886C908.862 758.886 911.569 759.226 914.381 759.907C917.222 760.588 919.855 761.771 922.282 763.458C924.709 765.115 926.676 767.438 928.186 770.427C929.695 773.386 930.45 777.145 930.45 781.702V828H922.548V817.213H922.06C921.113 819.226 919.707 821.179 917.843 823.073C915.979 824.967 913.641 826.52 910.83 827.734C908.018 828.947 904.719 829.554 900.931 829.554ZM901.996 822.318C906.198 822.318 909.838 821.386 912.916 819.522C915.993 817.657 918.361 815.186 920.018 812.109C921.705 809.001 922.548 805.583 922.548 801.855V792C921.956 792.563 920.965 793.066 919.574 793.509C918.213 793.953 916.63 794.353 914.825 794.708C913.049 795.034 911.273 795.315 909.498 795.551C907.722 795.788 906.124 795.995 904.704 796.173C900.857 796.646 897.572 797.386 894.849 798.392C892.127 799.398 890.041 800.789 888.591 802.565C887.141 804.311 886.415 806.56 886.415 809.312C886.415 813.455 887.895 816.666 890.854 818.945C893.814 821.194 897.528 822.318 901.996 822.318Z" fill="#7F8085"/>
<path d="M983.733 828V767.142H964.957C960.074 767.172 956.36 768.193 953.815 770.205C951.3 772.217 950.042 775.221 950.042 779.216C950.042 783.211 951.241 786.215 953.638 788.227C956.035 790.21 959.527 791.201 964.113 791.201H985.953V798.659H964.113C959.408 798.659 955.413 797.904 952.128 796.395C948.873 794.886 946.387 792.681 944.671 789.781C942.955 786.881 942.096 783.359 942.096 779.216C942.096 775.044 942.969 771.522 944.715 768.652C946.491 765.751 949.08 763.562 952.483 762.082C955.916 760.573 960.074 759.818 964.957 759.818H991.28V828H983.733ZM937.791 828L957.411 794.087H966.067L946.447 828H937.791Z" fill="#7F8085"/>
<path d="M1029.95 828V759.818H1056.81C1064.06 759.818 1069.77 761.387 1073.94 764.523C1078.15 767.66 1080.25 771.892 1080.25 777.219C1080.25 781.273 1079.08 784.513 1076.74 786.94C1074.4 789.367 1071.27 791.083 1067.33 792.089C1069.96 792.533 1072.41 793.495 1074.65 794.974C1076.93 796.454 1078.78 798.407 1080.2 800.834C1081.62 803.26 1082.33 806.16 1082.33 809.534C1082.33 813.085 1081.45 816.252 1079.67 819.033C1077.89 821.815 1075.39 824.005 1072.17 825.603C1068.94 827.201 1065.13 828 1060.72 828H1029.95ZM1037.5 820.676H1060.72C1064.89 820.676 1068.19 819.61 1070.61 817.48C1073.04 815.319 1074.25 812.449 1074.25 808.868C1074.25 805.051 1073.1 802.003 1070.79 799.724C1068.51 797.416 1065.45 796.262 1061.6 796.262H1037.5V820.676ZM1037.5 789.248H1057.3C1060.38 789.248 1063.04 788.775 1065.29 787.828C1067.54 786.881 1069.27 785.549 1070.48 783.833C1071.72 782.087 1072.33 780.045 1072.3 777.707C1072.3 774.363 1070.94 771.774 1068.22 769.939C1065.5 768.074 1061.69 767.142 1056.81 767.142H1037.5V789.248Z" fill="#7F8085"/>
<path d="M1098.81 816.769L1134.81 759.818H1144.26V828H1136.36V771.049L1100.49 828H1090.91V759.818H1098.81V816.769Z" fill="#7F8085"/>
<path d="M1146.83 767.275V759.818H1200.1V767.275H1177.55V828H1169.65V767.275H1146.83Z" fill="#7F8085"/>
<path d="M1208.05 853.568V759.818H1215.73V772.824H1216.66C1217.61 770.782 1218.91 768.696 1220.57 766.565C1222.22 764.405 1224.41 762.585 1227.14 761.105C1229.89 759.626 1233.35 758.886 1237.52 758.886C1243.15 758.886 1248.06 760.366 1252.26 763.325C1256.49 766.255 1259.78 770.368 1262.12 775.665C1264.48 780.933 1265.67 787.073 1265.67 794.087C1265.67 801.13 1264.48 807.3 1262.12 812.597C1259.78 817.894 1256.49 822.022 1252.26 824.981C1248.06 827.941 1243.18 829.42 1237.61 829.42C1233.5 829.42 1230.05 828.681 1227.27 827.201C1224.52 825.721 1222.28 823.901 1220.57 821.741C1218.88 819.551 1217.58 817.42 1216.66 815.349H1215.95V853.568H1208.05ZM1215.86 793.953C1215.86 799.458 1216.68 804.34 1218.3 808.602C1219.96 812.834 1222.33 816.163 1225.41 818.589C1228.51 820.986 1232.27 822.185 1236.68 822.185C1241.21 822.185 1245.03 820.942 1248.13 818.456C1251.27 815.941 1253.65 812.552 1255.28 808.291C1256.94 804.03 1257.77 799.251 1257.77 793.953C1257.77 788.715 1256.95 783.995 1255.32 779.793C1253.73 775.591 1251.36 772.262 1248.22 769.806C1245.09 767.32 1241.24 766.077 1236.68 766.077C1232.24 766.077 1228.47 767.275 1225.36 769.672C1222.25 772.04 1219.89 775.325 1218.26 779.527C1216.66 783.699 1215.86 788.508 1215.86 793.953Z" fill="#7F8085"/>
<path d="M1282.15 816.769L1318.15 759.818H1327.61V828H1319.71V771.049L1283.84 828H1274.25V759.818H1282.15V816.769Z" fill="#7F8085"/>
<path d="M1385.75 790.225V797.682H1345.67V790.225H1385.75ZM1347.62 759.818V828H1339.72V759.818H1347.62ZM1391.57 759.818V828H1383.67V759.818H1391.57Z" fill="#7F8085"/>
<path d="M1422.89 829.554C1418.78 829.554 1415.02 828.755 1411.61 827.157C1408.21 825.529 1405.5 823.191 1403.49 820.143C1401.48 817.065 1400.47 813.337 1400.47 808.957C1400.47 805.583 1401.11 802.742 1402.38 800.434C1403.65 798.126 1405.46 796.232 1407.8 794.752C1410.13 793.273 1412.9 792.104 1416.1 791.246C1419.29 790.387 1422.81 789.722 1426.66 789.248C1430.48 788.775 1433.7 788.36 1436.34 788.005C1439 787.65 1441.03 787.088 1442.42 786.318C1443.81 785.549 1444.51 784.306 1444.51 782.59V780.992C1444.51 776.346 1443.12 772.691 1440.33 770.028C1437.58 767.335 1433.62 765.988 1428.44 765.988C1423.53 765.988 1419.52 767.068 1416.41 769.229C1413.33 771.389 1411.17 773.934 1409.93 776.864L1402.43 774.156C1403.96 770.427 1406.09 767.453 1408.82 765.234C1411.54 762.985 1414.59 761.372 1417.96 760.395C1421.34 759.389 1424.75 758.886 1428.22 758.886C1430.82 758.886 1433.53 759.226 1436.34 759.907C1439.18 760.588 1441.81 761.771 1444.24 763.458C1446.67 765.115 1448.63 767.438 1450.14 770.427C1451.65 773.386 1452.41 777.145 1452.41 781.702V828H1444.51V817.213H1444.02C1443.07 819.226 1441.67 821.179 1439.8 823.073C1437.94 824.967 1435.6 826.52 1432.79 827.734C1429.98 828.947 1426.68 829.554 1422.89 829.554ZM1423.95 822.318C1428.16 822.318 1431.8 821.386 1434.87 819.522C1437.95 817.657 1440.32 815.186 1441.98 812.109C1443.66 809.001 1444.51 805.583 1444.51 801.855V792C1443.91 792.563 1442.92 793.066 1441.53 793.509C1440.17 793.953 1438.59 794.353 1436.78 794.708C1435.01 795.034 1433.23 795.315 1431.46 795.551C1429.68 795.788 1428.08 795.995 1426.66 796.173C1422.81 796.646 1419.53 797.386 1416.81 798.392C1414.08 799.398 1412 800.789 1410.55 802.565C1409.1 804.311 1408.37 806.56 1408.37 809.312C1408.37 813.455 1409.85 816.666 1412.81 818.945C1415.77 821.194 1419.49 822.318 1423.95 822.318Z" fill="#7F8085"/>
<path d="M1495.96 759.818L1513.54 788.893L1531.12 759.818H1540.31L1518.38 793.909L1540.31 828H1531.12L1513.54 799.857L1495.96 828H1486.82L1508.48 793.909L1486.82 759.818H1495.96Z" fill="#7F8085"/>
<path d="M1556.03 816.769L1592.03 759.818H1601.48V828H1593.58V771.049L1557.72 828H1548.13V759.818H1556.03V816.769Z" fill="#7F8085"/>
<path d="M1649.24 816.947L1674.85 759.818H1682.53L1652.39 828H1646.09L1616.3 759.818H1623.85L1649.24 816.947ZM1621.5 759.818V828H1613.6V759.818H1621.5ZM1676.98 828V759.818H1684.89V828H1676.98Z" fill="#7F8085"/>
<path d="M1705.03 816.769L1741.03 759.818H1750.49V828H1742.59V771.049L1706.72 828H1697.13V759.818H1705.03V816.769Z" fill="#7F8085"/>
<path d="M1812.89 759.818V828H1804.95V759.818H1812.89ZM1809.96 793.509V801.056C1807.27 802.032 1804.71 802.861 1802.28 803.541C1799.86 804.192 1797.42 804.696 1794.96 805.051C1792.53 805.406 1789.94 805.583 1787.19 805.583C1779.53 805.554 1773.51 803.586 1769.13 799.68C1764.78 795.773 1762.6 789.825 1762.6 781.835V759.596H1770.5V781.835C1770.5 785.623 1771.18 788.715 1772.54 791.112C1773.91 793.509 1775.83 795.285 1778.31 796.439C1780.8 797.564 1783.73 798.126 1787.1 798.126C1791.25 798.126 1795.15 797.712 1798.82 796.883C1802.49 796.054 1806.21 794.93 1809.96 793.509Z" fill="#7F8085"/>
<path d="M1852.71 829.42C1846.34 829.42 1840.84 827.941 1836.19 824.981C1831.55 821.993 1827.95 817.864 1825.41 812.597C1822.89 807.3 1821.63 801.204 1821.63 794.309C1821.63 787.443 1822.89 781.347 1825.41 776.02C1827.95 770.664 1831.46 766.476 1835.93 763.458C1840.42 760.41 1845.62 758.886 1851.51 758.886C1855.21 758.886 1858.77 759.567 1862.2 760.928C1865.64 762.259 1868.72 764.316 1871.44 767.098C1874.19 769.85 1876.36 773.327 1877.96 777.529C1879.56 781.702 1880.36 786.644 1880.36 792.355V796.262H1827.09V789.293H1872.28C1872.28 784.913 1871.39 780.977 1869.62 777.485C1867.87 773.963 1865.43 771.182 1862.29 769.14C1859.19 767.098 1855.59 766.077 1851.51 766.077C1847.19 766.077 1843.38 767.231 1840.1 769.539C1836.81 771.848 1834.24 774.896 1832.38 778.684C1830.54 782.471 1829.61 786.614 1829.58 791.112V795.285C1829.58 800.701 1830.51 805.435 1832.38 809.49C1834.27 813.514 1836.95 816.636 1840.41 818.856C1843.87 821.075 1847.97 822.185 1852.71 822.185C1855.93 822.185 1858.76 821.682 1861.18 820.676C1863.64 819.67 1865.7 818.323 1867.35 816.636C1869.04 814.92 1870.31 813.041 1871.17 810.999L1878.67 813.44C1877.64 816.311 1875.94 818.959 1873.57 821.386C1871.23 823.813 1868.3 825.766 1864.78 827.245C1861.29 828.695 1857.26 829.42 1852.71 829.42Z" fill="#7F8085"/>
<path d="M1915.66 829.42C1909.56 829.42 1904.25 827.896 1899.72 824.848C1895.22 821.8 1891.73 817.628 1889.24 812.331C1886.76 807.033 1885.51 800.996 1885.51 794.22C1885.51 787.384 1886.77 781.302 1889.29 775.976C1891.83 770.649 1895.35 766.476 1899.85 763.458C1904.35 760.41 1909.57 758.886 1915.52 758.886C1920.08 758.886 1924.21 759.774 1927.91 761.549C1931.61 763.295 1934.65 765.766 1937.05 768.962C1939.48 772.129 1941 775.828 1941.62 780.06H1933.63C1932.8 776.213 1930.81 772.928 1927.64 770.205C1924.5 767.453 1920.51 766.077 1915.66 766.077C1911.31 766.077 1907.46 767.261 1904.11 769.628C1900.77 771.966 1898.15 775.236 1896.26 779.438C1894.39 783.611 1893.46 788.449 1893.46 793.953C1893.46 799.487 1894.38 804.385 1896.21 808.646C1898.05 812.878 1900.62 816.192 1903.94 818.589C1907.28 820.986 1911.19 822.185 1915.66 822.185C1918.67 822.185 1921.43 821.623 1923.91 820.498C1926.43 819.344 1928.53 817.716 1930.21 815.615C1931.93 813.514 1933.09 811.014 1933.68 808.114H1941.67C1941.08 812.227 1939.61 815.896 1937.27 819.122C1934.96 822.318 1931.96 824.833 1928.26 826.668C1924.59 828.503 1920.39 829.42 1915.66 829.42Z" fill="#7F8085"/>
<path d="M1949.85 828V759.818H1957.75V790.491H1965.17L1990.51 759.818H2000.72L1973.38 792.622L2001.34 828H1991.13L1967.61 797.948H1957.75V828H1949.85Z" fill="#7F8085"/>
<path d="M2013.46 816.769L2049.46 759.818H2058.91V828H2051.01V771.049L2015.14 828H2005.55V759.818H2013.46V816.769Z" fill="#7F8085"/>
<path d="M2075.91 759.818L2093.48 788.893L2111.06 759.818H2120.25L2098.32 793.909L2120.25 828H2111.06L2093.48 799.857L2075.91 828H2066.76L2088.42 793.909L2066.76 759.818H2075.91Z" fill="#7F8085"/>
<path d="M2190.12 816.947L2215.73 759.818H2223.41L2193.27 828H2186.97L2157.18 759.818H2164.73L2190.12 816.947ZM2162.38 759.818V828H2154.48V759.818H2162.38ZM2217.86 828V759.818H2225.76V828H2217.86Z" fill="#7F8085"/>
<path d="M2257.05 829.554C2252.94 829.554 2249.18 828.755 2245.78 827.157C2242.38 825.529 2239.67 823.191 2237.66 820.143C2235.64 817.065 2234.64 813.337 2234.64 808.957C2234.64 805.583 2235.27 802.742 2236.55 800.434C2237.82 798.126 2239.62 796.232 2241.96 794.752C2244.3 793.273 2247.07 792.104 2250.26 791.246C2253.46 790.387 2256.98 789.722 2260.83 789.248C2264.64 788.775 2267.87 788.36 2270.5 788.005C2273.17 787.65 2275.19 787.088 2276.59 786.318C2277.98 785.549 2278.67 784.306 2278.67 782.59V780.992C2278.67 776.346 2277.28 772.691 2274.5 770.028C2271.75 767.335 2267.78 765.988 2262.6 765.988C2257.69 765.988 2253.68 767.068 2250.57 769.229C2247.5 771.389 2245.34 773.934 2244.09 776.864L2236.59 774.156C2238.13 770.427 2240.26 767.453 2242.98 765.234C2245.7 762.985 2248.75 761.372 2252.13 760.395C2255.5 759.389 2258.92 758.886 2262.38 758.886C2264.98 758.886 2267.69 759.226 2270.5 759.907C2273.34 760.588 2275.98 761.771 2278.41 763.458C2280.83 765.115 2282.8 767.438 2284.31 770.427C2285.82 773.386 2286.57 777.145 2286.57 781.702V828H2278.67V817.213H2278.18C2277.24 819.226 2275.83 821.179 2273.97 823.073C2272.1 824.967 2269.76 826.52 2266.95 827.734C2264.14 828.947 2260.84 829.554 2257.05 829.554ZM2258.12 822.318C2262.32 822.318 2265.96 821.386 2269.04 819.522C2272.12 817.657 2274.48 815.186 2276.14 812.109C2277.83 809.001 2278.67 805.583 2278.67 801.855V792C2278.08 792.563 2277.09 793.066 2275.7 793.509C2274.34 793.953 2272.75 794.353 2270.95 794.708C2269.17 795.034 2267.4 795.315 2265.62 795.551C2263.85 795.788 2262.25 795.995 2260.83 796.173C2256.98 796.646 2253.7 797.386 2250.97 798.392C2248.25 799.398 2246.16 800.789 2244.71 802.565C2243.26 804.311 2242.54 806.56 2242.54 809.312C2242.54 813.455 2244.02 816.666 2246.98 818.945C2249.94 821.194 2253.65 822.318 2258.12 822.318Z" fill="#7F8085"/>
<path d="M2289.3 767.275V759.818H2342.56V767.275H2320.01V828H2312.11V767.275H2289.3Z" fill="#7F8085"/>
<path d="M2374.54 829.42C2368.18 829.42 2362.67 827.941 2358.03 824.981C2353.38 821.993 2349.79 817.864 2347.24 812.597C2344.73 807.3 2343.47 801.204 2343.47 794.309C2343.47 787.443 2344.73 781.347 2347.24 776.02C2349.79 770.664 2353.29 766.476 2357.76 763.458C2362.26 760.41 2367.45 758.886 2373.34 758.886C2377.04 758.886 2380.61 759.567 2384.04 760.928C2387.47 762.259 2390.55 764.316 2393.27 767.098C2396.03 769.85 2398.2 773.327 2399.8 777.529C2401.4 781.702 2402.2 786.644 2402.2 792.355V796.262H2348.93V789.293H2394.12C2394.12 784.913 2393.23 780.977 2391.45 777.485C2389.71 773.963 2387.27 771.182 2384.13 769.14C2381.02 767.098 2377.43 766.077 2373.34 766.077C2369.02 766.077 2365.22 767.231 2361.93 769.539C2358.65 771.848 2356.08 774.896 2354.21 778.684C2352.38 782.471 2351.44 786.614 2351.41 791.112V795.285C2351.41 800.701 2352.35 805.435 2354.21 809.49C2356.1 813.514 2358.78 816.636 2362.25 818.856C2365.71 821.075 2369.81 822.185 2374.54 822.185C2377.77 822.185 2380.59 821.682 2383.02 820.676C2385.48 819.67 2387.53 818.323 2389.19 816.636C2390.88 814.92 2392.15 813.041 2393.01 810.999L2400.51 813.44C2399.47 816.311 2397.77 818.959 2395.4 821.386C2393.07 823.813 2390.14 825.766 2386.62 827.245C2383.12 828.695 2379.1 829.42 2374.54 829.42Z" fill="#7F8085"/>
<path d="M2410.86 853.568V759.818H2418.54V772.824H2419.47C2420.42 770.782 2421.72 768.696 2423.38 766.565C2425.03 764.405 2427.22 762.585 2429.94 761.105C2432.7 759.626 2436.16 758.886 2440.33 758.886C2445.95 758.886 2450.87 760.366 2455.07 763.325C2459.3 766.255 2462.59 770.368 2464.92 775.665C2467.29 780.933 2468.47 787.073 2468.47 794.087C2468.47 801.13 2467.29 807.3 2464.92 812.597C2462.59 817.894 2459.3 822.022 2455.07 824.981C2450.87 827.941 2445.98 829.42 2440.42 829.42C2436.31 829.42 2432.86 828.681 2430.08 827.201C2427.33 825.721 2425.09 823.901 2423.38 821.741C2421.69 819.551 2420.39 817.42 2419.47 815.349H2418.76V853.568H2410.86ZM2418.67 793.953C2418.67 799.458 2419.48 804.34 2421.11 808.602C2422.77 812.834 2425.14 816.163 2428.21 818.589C2431.32 820.986 2435.08 822.185 2439.49 822.185C2444.02 822.185 2447.83 820.942 2450.94 818.456C2454.08 815.941 2456.46 812.552 2458.09 808.291C2459.74 804.03 2460.57 799.251 2460.57 793.953C2460.57 788.715 2459.76 783.995 2458.13 779.793C2456.53 775.591 2454.17 772.262 2451.03 769.806C2447.89 767.32 2444.05 766.077 2439.49 766.077C2435.05 766.077 2431.28 767.275 2428.17 769.672C2425.06 772.04 2422.69 775.325 2421.07 779.527C2419.47 783.699 2418.67 788.508 2418.67 793.953Z" fill="#7F8085"/>
<path d="M2484.96 816.769L2520.96 759.818H2530.41V828H2522.51V771.049L2486.65 828H2477.06V759.818H2484.96V816.769Z" fill="#7F8085"/>
<path d="M2561.57 829.554C2557.46 829.554 2553.7 828.755 2550.3 827.157C2546.89 825.529 2544.18 823.191 2542.17 820.143C2540.16 817.065 2539.15 813.337 2539.15 808.957C2539.15 805.583 2539.79 802.742 2541.06 800.434C2542.33 798.126 2544.14 796.232 2546.48 794.752C2548.82 793.273 2551.58 792.104 2554.78 791.246C2557.97 790.387 2561.5 789.722 2565.34 789.248C2569.16 788.775 2572.39 788.36 2575.02 788.005C2577.68 787.65 2579.71 787.088 2581.1 786.318C2582.49 785.549 2583.19 784.306 2583.19 782.59V780.992C2583.19 776.346 2581.8 772.691 2579.02 770.028C2576.26 767.335 2572.3 765.988 2567.12 765.988C2562.21 765.988 2558.2 767.068 2555.09 769.229C2552.01 771.389 2549.85 773.934 2548.61 776.864L2541.11 774.156C2542.65 770.427 2544.78 767.453 2547.5 765.234C2550.22 762.985 2553.27 761.372 2556.64 760.395C2560.02 759.389 2563.43 758.886 2566.9 758.886C2569.5 758.886 2572.21 759.226 2575.02 759.907C2577.86 760.588 2580.5 761.771 2582.92 763.458C2585.35 765.115 2587.32 767.438 2588.83 770.427C2590.33 773.386 2591.09 777.145 2591.09 781.702V828H2583.19V817.213H2582.7C2581.75 819.226 2580.35 821.179 2578.48 823.073C2576.62 824.967 2574.28 826.52 2571.47 827.734C2568.66 828.947 2565.36 829.554 2561.57 829.554ZM2562.64 822.318C2566.84 822.318 2570.48 821.386 2573.56 819.522C2576.63 817.657 2579 815.186 2580.66 812.109C2582.34 809.001 2583.19 805.583 2583.19 801.855V792C2582.6 792.563 2581.6 793.066 2580.21 793.509C2578.85 793.953 2577.27 794.353 2575.46 794.708C2573.69 795.034 2571.91 795.315 2570.14 795.551C2568.36 795.788 2566.76 795.995 2565.34 796.173C2561.5 796.646 2558.21 797.386 2555.49 798.392C2552.77 799.398 2550.68 800.789 2549.23 802.565C2547.78 804.311 2547.06 806.56 2547.06 809.312C2547.06 813.455 2548.53 816.666 2551.49 818.945C2554.45 821.194 2558.17 822.318 2562.64 822.318Z" fill="#7F8085"/>
<path d="M2596.65 828V820.543H2598.79C2601.21 820.543 2603.17 820.099 2604.64 819.211C2606.15 818.293 2607.32 816.755 2608.15 814.594C2608.98 812.434 2609.6 809.49 2610.02 805.761C2610.43 802.032 2610.76 797.357 2610.99 791.734L2612.46 759.818H2655.78V828H2647.84V767.275H2619.96L2618.67 794.397C2618.41 799.931 2617.96 804.799 2617.34 809.001C2616.75 813.204 2615.77 816.71 2614.41 819.522C2613.08 822.333 2611.21 824.449 2608.82 825.869C2606.45 827.29 2603.34 828 2599.5 828H2596.65Z" fill="#7F8085"/>
<path d="M2694.47 829.42C2688.58 829.42 2683.37 827.926 2678.85 824.937C2674.35 821.948 2670.83 817.82 2668.28 812.552C2665.74 807.255 2664.47 801.144 2664.47 794.22C2664.47 787.236 2665.74 781.095 2668.28 775.798C2670.83 770.472 2674.35 766.329 2678.85 763.369C2683.37 760.38 2688.58 758.886 2694.47 758.886C2700.36 758.886 2705.55 760.38 2710.05 763.369C2714.55 766.358 2718.07 770.501 2720.62 775.798C2723.19 781.095 2724.48 787.236 2724.48 794.22C2724.48 801.144 2723.21 807.255 2720.66 812.552C2718.12 817.82 2714.58 821.948 2710.05 824.937C2705.55 827.926 2700.36 829.42 2694.47 829.42ZM2694.47 822.185C2699.21 822.185 2703.22 820.912 2706.5 818.367C2709.79 815.822 2712.27 812.434 2713.96 808.202C2715.68 803.971 2716.53 799.31 2716.53 794.22C2716.53 789.13 2715.68 784.454 2713.96 780.193C2712.27 775.931 2709.79 772.513 2706.5 769.939C2703.22 767.364 2699.21 766.077 2694.47 766.077C2689.77 766.077 2685.76 767.364 2682.44 769.939C2679.16 772.513 2676.66 775.931 2674.94 780.193C2673.25 784.454 2672.41 789.13 2672.41 794.22C2672.41 799.31 2673.25 803.971 2674.94 808.202C2676.66 812.434 2679.16 815.822 2682.44 818.367C2685.73 820.912 2689.74 822.185 2694.47 822.185Z" fill="#7F8085"/>
<path d="M2733.07 828V759.818H2759.93C2767.18 759.818 2772.89 761.387 2777.06 764.523C2781.27 767.66 2783.37 771.892 2783.37 777.219C2783.37 781.273 2782.2 784.513 2779.86 786.94C2777.52 789.367 2774.39 791.083 2770.45 792.089C2773.08 792.533 2775.53 793.495 2777.77 794.974C2780.05 796.454 2781.9 798.407 2783.32 800.834C2784.74 803.26 2785.45 806.16 2785.45 809.534C2785.45 813.085 2784.57 816.252 2782.79 819.033C2781.01 821.815 2778.51 824.005 2775.29 825.603C2772.06 827.201 2768.25 828 2763.84 828H2733.07ZM2740.62 820.676H2763.84C2768.01 820.676 2771.31 819.61 2773.73 817.48C2776.16 815.319 2777.37 812.449 2777.37 808.868C2777.37 805.051 2776.22 802.003 2773.91 799.724C2771.63 797.416 2768.57 796.262 2764.72 796.262H2740.62V820.676ZM2740.62 789.248H2760.42C2763.5 789.248 2766.16 788.775 2768.41 787.828C2770.66 786.881 2772.39 785.549 2773.6 783.833C2774.84 782.087 2775.45 780.045 2775.42 777.707C2775.42 774.363 2774.06 771.774 2771.34 769.939C2768.62 768.074 2764.81 767.142 2759.93 767.142H2740.62V789.248Z" fill="#7F8085"/>
<defs>
<radialGradient id="paint0_radial_1831_101" cx="0" cy="0" r="1" gradientUnits="userSpaceOnUse" gradientTransform="translate(469 469) rotate(90) scale(469)">
<stop stop-color="#00FFD1"/>
<stop offset="1" stop-color="#4DAABB" stop-opacity="0"/>
</radialGradient>
<radialGradient id="paint1_radial_1831_101" cx="0" cy="0" r="1" gradientUnits="userSpaceOnUse" gradientTransform="translate(597 575.5) rotate(-142.256) scale(788.611)">
<stop stop-color="#00FFD1"/>
<stop offset="1" stop-color="#4DAABB" stop-opacity="0"/>
</radialGradient>
</defs>
</svg>
